<?xml version="1.0" standalone="no"?><svg xmlns="http://www.w3.org/2000/svg" viewBox="0 0 1440 320"><path fill="#f48a9a" fill-opacity="1" d="M0,64L20,58.7C40,53,80,43,120,53.3C160,64,200,96,240,106.7C280,117,320,107,360,133.3C400,160,440,224,480,234.7C520,245,560,203,600,186.7C640,171,680,181,720,192C760,203,800,213,840,224C880,235,920,245,960,261.3C1000,277,1040,299,1080,261.3C1120,224,1160,128,1200,106.7C1240,85,1280,139,1320,144C1360,149,1400,107,1420,85.3L1440,64L1440,0L1420,0C1400,0,1360,0,1320,0C1280,0,1240,0,1200,0C1160,0,1120,0,1080,0C1040,0,1000,0,960,0C920,0,880,0,840,0C800,0,760,0,720,0C680,0,640,0,600,0C560,0,520,0,480,0C440,0,400,0,360,0C320,0,280,0,240,0C200,0,160,0,120,0C80,0,40,0,20,0L0,0Z"></path></svg>