<?xml version="1.0" standalone="no"?><svg xmlns="http://www.w3.org/2000/svg" viewBox="0 0 1440 320"><path fill="#f48a9a" fill-opacity="1" d="M0,160L20,138.7C40,117,80,75,120,53.3C160,32,200,32,240,48C280,64,320,96,360,128C400,160,440,192,480,224C520,256,560,288,600,282.7C640,277,680,235,720,186.7C760,139,800,85,840,80C880,75,920,117,960,117.3C1000,117,1040,75,1080,80C1120,85,1160,139,1200,170.7C1240,203,1280,213,1320,229.3C1360,245,1400,267,1420,277.3L1440,288L1440,0L1420,0C1400,0,1360,0,1320,0C1280,0,1240,0,1200,0C1160,0,1120,0,1080,0C1040,0,1000,0,960,0C920,0,880,0,840,0C800,0,760,0,720,0C680,0,640,0,600,0C560,0,520,0,480,0C440,0,400,0,360,0C320,0,280,0,240,0C200,0,160,0,120,0C80,0,40,0,20,0L0,0Z"></path></svg>