<?xml version="1.0" standalone="no"?><svg xmlns="http://www.w3.org/2000/svg" viewBox="0 0 1440 320"><path fill="#f48a9a" fill-opacity="1" d="M0,224L20,240C40,256,80,288,120,293.3C160,299,200,277,240,261.3C280,245,320,235,360,245.3C400,256,440,288,480,282.7C520,277,560,235,600,202.7C640,171,680,149,720,144C760,139,800,149,840,165.3C880,181,920,203,960,202.7C1000,203,1040,181,1080,165.3C1120,149,1160,139,1200,112C1240,85,1280,43,1320,69.3C1360,96,1400,192,1420,240L1440,288L1440,0L1420,0C1400,0,1360,0,1320,0C1280,0,1240,0,1200,0C1160,0,1120,0,1080,0C1040,0,1000,0,960,0C920,0,880,0,840,0C800,0,760,0,720,0C680,0,640,0,600,0C560,0,520,0,480,0C440,0,400,0,360,0C320,0,280,0,240,0C200,0,160,0,120,0C80,0,40,0,20,0L0,0Z"></path></svg>